<?xml version="1.0" encoding="utf-8"?>
<!-- Generator: Adobe Illustrator 16.0.0, SVG Export Plug-In . SVG Version: 6.00 Build 0)  -->
<!DOCTYPE svg PUBLIC "-//W3C//DTD SVG 1.1//EN" "http://www.w3.org/Graphics/SVG/1.1/DTD/svg11.dtd">
<svg version="1.1" xmlns="http://www.w3.org/2000/svg" xmlns:xlink="http://www.w3.org/1999/xlink" x="0px" y="0px"
	 width="163.884px" height="42.072px" viewBox="0 0 163.884 42.072" enable-background="new 0 0 163.884 42.072"
	 xml:space="preserve">
<g id="Layer_1">
	<g>
		<path fill="#016FBA" d="M39.042,0.585c0,0.482,0,0.908,0,1.279c0,1.595-0.317,2.838-0.952,3.728
			c-0.635,0.89-1.531,1.576-2.688,2.057c-0.896,0.371-2.035,0.668-3.416,0.891c-1.381,0.223-2.707,0.333-3.976,0.333v27.048
			c2.464-0.858,4.517-2.035,6.16-3.528c1.194-1.12,2.445-2.707,3.752-4.76l0.392,0.168c-0.635,3.995-2.399,7.336-5.292,10.024
			c-2.894,2.688-6.375,4.031-10.444,4.031c-5.675,0-10.388-1.598-14.14-4.795s-5.628-7.189-5.628-11.975
			c0-3.365,0.97-6.75,2.912-10.153c2.128-3.739,4.872-6.525,8.232-8.357c-0.709-0.125-1.288-0.201-1.736-0.233
			c-0.448-0.031-1.12-0.047-2.016-0.047c-0.299,0-0.542,0-0.728,0c-1.195,0-2.763,0.551-4.704,1.652
			c-1.941,1.102-3.379,2.361-4.312,3.78H0.123C-0.102,10.647,0.291,9.173,1.3,7.306c2.504-4.629,6.617-6.944,12.337-6.944
			c1.607,0,5.131,0.542,10.571,1.624c5.44,1.083,8.459,1.624,9.058,1.624c1.346,0,2.374-0.186,3.084-0.56
			c0.859-0.485,1.588-1.381,2.187-2.688L39.042,0.585z M16.362,26.625V7.082l-0.84-0.224c-2.24,1.344-3.939,3.379-5.096,6.104
			c-1.008,2.352-1.512,4.816-1.512,7.392c0,3.622,0.84,6.702,2.52,9.24c0.56,0.821,1.4,1.736,2.52,2.744
			c0.261-0.225,0.466-0.41,0.616-0.561c0.448-0.484,0.756-0.951,0.924-1.4c0.168-0.447,0.289-0.82,0.364-1.119
			C16.194,28.213,16.362,27.335,16.362,26.625z M26.442,36.09V8.874l-3.808-0.84v11.984c0,2.016-0.188,3.724-0.56,5.124
			c-0.374,1.4-1.046,2.623-2.016,3.668c-0.784,0.859-1.718,1.735-2.8,2.632c-0.784,0.635-1.549,1.27-2.296,1.904
			c0.821,0.561,1.68,1.045,2.576,1.456s1.848,0.728,2.856,0.952c0.373,0.075,0.905,0.149,1.596,0.224
			c0.69,0.075,1.446,0.112,2.268,0.112c0.485,0,0.915,0,1.288,0C25.919,36.09,26.219,36.09,26.442,36.09z"/>
	</g>
	<g>
		<path fill="#016FBA" d="M31.728,11.75h-0.974v-0.83l5.46-0.398v3.37c0.726-2.158,1.718-3.237,2.979-3.237h0.229
			c0.865,0,1.501,0.542,1.909,1.627c0.292,0.742,0.439,1.583,0.439,2.523c0,0.775-0.146,1.489-0.439,2.142
			c-0.408,0.863-0.993,1.295-1.756,1.295c-1.451-0.243-2.177-1.505-2.177-3.785l0.153-1.494c-0.051-0.066-0.089-0.11-0.114-0.133
			l-0.077-0.066c-0.28,0-0.541,0.67-0.783,2.009c-0.102,0.554-0.153,1.483-0.153,2.789v8.367h1.355v0.78h-7.025v-0.78h0.974V11.75z"
			/>
		<path fill="#016FBA" d="M43.569,11.767h-0.974V10.92c0.891,0,1.935-0.055,3.131-0.166l2.539-0.232v15.406h1.05v0.78h-6.72v-0.78
			h0.974V11.767z M43.378,5.757c0-2.014,0.859-3.021,2.577-3.021c1.642,0,2.463,1.09,2.463,3.271c0,0.83-0.159,1.544-0.477,2.142
			c-0.42,0.786-1.057,1.179-1.909,1.179c-1.795,0-2.692-1.084-2.692-3.254L43.378,5.757z"/>
		<path fill="#016FBA" d="M55.506,12.896c0.764-1.604,1.648-2.407,2.653-2.407c0.191,0,0.325,0.011,0.401,0.033
			c1.298,0.155,2.265,1.317,2.902,3.486c0.433,1.483,0.649,3.049,0.649,4.698c0,4.051-0.8,6.696-2.4,7.936
			c-0.218,0.177-0.435,0.304-0.653,0.382c-0.281,0.11-0.614,0.166-0.998,0.166c-1.344,0-2.272-1.023-2.784-3.071v3.071
			c-0.84-0.122-2.113-0.271-3.818-0.448c-0.458-0.022-0.948-0.033-1.47-0.033v-0.78H51V4.363h-1.012V3.616
			c1.158,0,2.997-0.183,5.518-0.548V12.896z M57.263,14.971c0-1.627-0.236-2.44-0.707-2.44c-0.7,0-1.05,1.085-1.05,3.254v5.927
			c0,2.335,0.337,3.503,1.012,3.503c0.382,0,0.611-0.548,0.687-1.644c0.039-0.487,0.058-1.129,0.058-1.926V14.971z"/>
		<path fill="#016FBA" d="M63.988,11.767h-0.955V10.92c1.311,0,3.169-0.133,5.575-0.398v12.551c0,0.908,0.057,1.439,0.172,1.594
			c0.076,0.177,0.254,0.266,0.534,0.266c0.382,0,0.668-0.348,0.859-1.044c0.178-0.652,0.267-1.448,0.267-2.388v-9.733H69.41V10.92
			c0.626,0,1.555-0.055,2.788-0.166c1.232-0.11,2.161-0.166,2.787-0.166v15.34h1.069v0.78c-1.031,0-1.999,0.055-2.902,0.166
			l-2.54,0.315v-3.138c-0.891,2.092-2.049,3.138-3.475,3.138c-0.216,0-0.375-0.011-0.477-0.033c-0.968-0.088-1.655-0.695-2.062-1.82
			c-0.408-1.125-0.611-2.565-0.611-4.319V11.767z"/>
		<path fill="#016FBA" d="M77.91,25.928V11.767h-0.955V10.92c0.534,0,1.171-0.033,1.909-0.1c1.705-0.155,2.927-0.232,3.666-0.232
			v3.088c0.789-2.103,1.883-3.154,3.284-3.154c0.292,0,0.516,0.011,0.668,0.033c0.191,0.056,0.414,0.144,0.668,0.266
			c1.171,0.576,1.756,2.457,1.756,5.645v9.463h1.031v0.78h-6.224v-0.78h0.649V14.805c0-1.272-0.216-1.909-0.649-1.909h-0.076
			c-0.344,0-0.605,0.299-0.783,0.896c-0.216,0.742-0.324,1.439-0.324,2.092v10.044h0.706v0.78h-6.281v-0.78H77.91z"/>
		<path fill="#016FBA" d="M101.479,25.829V4.496c-1.693,0.266-2.87,2.806-3.532,7.62h-0.573l0.114-8.5h13.88l0.076,8.5h-0.554
			c-0.331-2.202-0.719-3.879-1.164-5.03c-0.624-1.604-1.42-2.468-2.387-2.59v21.333h1.718v0.88H99.76v-0.88H101.479z"/>
		<path fill="#016FBA" d="M113.301,11.767h-0.974V10.92c0.891,0,1.935-0.055,3.132-0.166l2.539-0.232v15.406h1.05v0.78h-6.721v-0.78
			h0.974V11.767z M113.11,5.757c0-2.014,0.859-3.021,2.577-3.021c1.642,0,2.463,1.09,2.463,3.271c0,0.83-0.159,1.544-0.478,2.142
			c-0.42,0.786-1.057,1.179-1.909,1.179c-1.794,0-2.691-1.084-2.691-3.254L113.11,5.757z"/>
		<path fill="#016FBA" d="M125.047,10.522v3.437c0.917-2.291,1.985-3.437,3.208-3.437h0.229c1.451,0,2.311,1.102,2.578,3.304
			c0.84-2.202,1.959-3.304,3.359-3.304c0.522,0,1.006,0.133,1.451,0.398c0.496,0.388,0.853,1.046,1.069,1.976
			c0.203,0.875,0.306,2.108,0.306,3.702v9.33h1.012v0.78h-5.976v-0.78h0.534V14.971c0-1.339-0.179-2.009-0.534-2.009h-0.08
			c-0.291,0-0.529,0.498-0.715,1.494c-0.119,0.687-0.179,1.278-0.179,1.776v9.695h0.534v0.78h-5.575v-0.78h0.611V14.772
			c0-0.774-0.033-1.27-0.099-1.486s-0.236-0.324-0.513-0.324h-0.074c-0.225,0-0.425,0.26-0.6,0.78
			c-0.213,0.642-0.318,1.356-0.318,2.142v10.044h0.516v0.78h-5.938v-0.78h0.992V11.75h-0.992v-0.83
			C121.089,10.92,122.819,10.788,125.047,10.522z"/>
		<path fill="#016FBA" d="M140.02,11.767h-0.954V10.92c1.311,0,3.169-0.133,5.574-0.398v12.551c0,0.908,0.058,1.439,0.172,1.594
			c0.077,0.177,0.255,0.266,0.535,0.266c0.382,0,0.668-0.348,0.858-1.044c0.179-0.652,0.268-1.448,0.268-2.388v-9.733h-1.031V10.92
			c0.626,0,1.556-0.055,2.788-0.166c1.232-0.11,2.161-0.166,2.787-0.166v15.34h1.069v0.78c-1.031,0-1.998,0.055-2.902,0.166
			l-2.539,0.315v-3.138c-0.891,2.092-2.049,3.138-3.475,3.138c-0.217,0-0.376-0.011-0.478-0.033
			c-0.967-0.088-1.654-0.695-2.062-1.82c-0.407-1.125-0.611-2.565-0.611-4.319V11.767z"/>
		<path fill="#016FBA" d="M153.961,11.75h-0.974v-0.83l5.46-0.398v3.37c0.726-2.158,1.719-3.237,2.979-3.237h0.229
			c0.866,0,1.502,0.542,1.91,1.627c0.292,0.742,0.438,1.583,0.438,2.523c0,0.775-0.146,1.489-0.438,2.142
			c-0.408,0.863-0.993,1.295-1.757,1.295c-1.451-0.243-2.177-1.505-2.177-3.785l0.153-1.494c-0.052-0.066-0.09-0.11-0.115-0.133
			l-0.076-0.066c-0.28,0-0.541,0.67-0.782,2.009c-0.103,0.554-0.153,1.483-0.153,2.789v8.367h1.355v0.78h-7.025v-0.78h0.974V11.75z"
			/>
	</g>
</g>
<g id="Layer_3">
</g>
</svg>
